<svg enable-background="new 0 0 74 70" height="70" viewBox="0 0 74 70" width="74" xmlns="http://www.w3.org/2000/svg"><g fill="#81b3d2"><path d="m69.854 46.71h-10.579-44.646-10.578c-2.274 0-4.135 1.94-4.135 4.313v3.504c0 2.372 1.861 4.313 4.135 4.313h.93v1.053c0 5.536 4.341 10.065 9.648 10.065h44.646c5.306 0 9.648-4.529 9.648-10.065v-1.053h.93c2.274 0 4.135-1.941 4.135-4.313v-3.504c0-2.373-1.86-4.313-4.134-4.313zm-3.848 13.184c0 3.871-3.019 7.021-6.73 7.021h-44.647c-3.711 0-6.731-3.15-6.731-7.021v-1.053h58.107v1.053zm5.065-5.367c0 .688-.558 1.271-1.218 1.271h-.978-2.942-57.961-2.944-.977c-.66 0-1.217-.582-1.217-1.271v-3.504c0-.688.558-1.271 1.217-1.271h3.688 6.89 44.646 6.89 3.688c.66 0 1.218.582 1.218 1.271z"/><path d="m15.634 38.406 5.323 4.059 5.326-4.059 5.328 4.059 5.328-4.059 5.328 4.059 5.329-4.059 5.327 4.059 5.33-4.06 5.336 4.059 6.194-4.712-1.72-2.459-4.474 3.403-5.336-4.057-5.33 4.056-5.327-4.057-5.329 4.057-5.328-4.057-5.328 4.057-5.328-4.057-5.325 4.057-5.323-4.057-5.327 4.057-4.467-3.401-1.721 2.457 6.188 4.714z"/><path d="m7.978 31.544h57.949 2.928c.041-.619.069-1.241.069-1.87 0-.394-.016-.783-.032-1.173-.665-15.844-14.706-28.501-31.94-28.501-17.233 0-31.275 12.657-31.939 28.501-.017.39-.032.78-.032 1.173 0 .629.028 1.251.07 1.87zm28.974-28.501c15.591 0 28.35 11.316 29.021 25.458h-58.042c.673-14.142 13.43-25.458 29.021-25.458z"/><ellipse cx="36.952" cy="15.26" rx="1.945" ry="2.03"/><ellipse cx="29.172" cy="10.23" rx="1.946" ry="2.03"/><ellipse cx="44.732" cy="10.23" rx="1.946" ry="2.03"/></g></svg>
