<svg enable-background="new 0 0 21 22" height="22" viewBox="0 0 21 22" width="21" xmlns="http://www.w3.org/2000/svg"><g fill="#81b3d2"><path d="m19.251 2.025h-2.845v-1.377c0-.381-.294-.689-.656-.689-.363 0-.656.308-.656.689v1.377h-3.938v-1.377c0-.381-.294-.689-.655-.689-.363 0-.657.308-.657.689v1.377h-3.938v-1.377c0-.381-.294-.689-.656-.689-.363 0-.657.308-.657.689v1.377h-2.843c-.966 0-1.75.822-1.75 1.837v16.302c0 1.015.784 1.836 1.75 1.836h17.501c.966 0 1.749-.821 1.749-1.836v-16.302c0-1.015-.783-1.837-1.749-1.837zm.437 18.139c0 .253-.195.459-.437.459h-17.501c-.241 0-.438-.206-.438-.459v-16.302c0-.253.196-.459.438-.459h2.844v1.378c0 .381.294.689.657.689.362 0 .656-.308.656-.689v-1.378h3.938v1.378c0 .381.294.689.657.689.361 0 .655-.308.655-.689v-1.378h3.938v1.378c0 .381.293.689.656.689.362 0 .656-.308.656-.689v-1.378h2.845c.241 0 .437.206.437.459v16.302z"/><path d="m4.594 8.225h2.625v2.066h-2.625z"/><path d="m4.594 11.668h2.625v2.067h-2.625z"/><path d="m4.594 15.112h2.625v2.066h-2.625z"/><path d="m9.188 15.112h2.625v2.066h-2.625z"/><path d="m9.188 11.668h2.625v2.067h-2.625z"/><path d="m9.188 8.225h2.625v2.066h-2.625z"/><path d="m13.781 15.112h2.625v2.066h-2.625z"/><path d="m13.781 11.668h2.625v2.067h-2.625z"/><path d="m13.781 8.225h2.625v2.066h-2.625z"/></g></svg>
